# xmcd
#
# Track frame offsets:
#	150
#	15585
#	31577
#	53232
#	66092
#	85627
#	106255
#	123507
#	142027
#	157467
#	172482
#
# Disc length: 2568 seconds
#
# Revision: 1
# Processed by: cddbd v1.5.1PL0 Copyright (c) Steve Scherf et al.
# Submitted via: CDex 1.50Beta5
#
DISCID=960a060b
DTITLE=細野晴臣 - 決定版・細野晴臣ベスト・セレクション
DYEAR=1990
DGENRE=Jazz
TTITLE0=三国志メイン・テーマ
TTITLE1=東京ラッシュ
TTITLE2=四面道歌
TTITLE3=フジヤマ・ママ
TTITLE4=はらいそ
TTITLE5=フニクリ・フニクラ
TTITLE6=L.D.K
TTITLE7=スポーツマン
TTITLE8=フィルハーモニー
TTITLE9=夢見る約束
TTITLE10=ウォリー・ビーズ
EXTD=
EXTT0=
EXTT1=
EXTT2=
EXTT3=
EXTT4=
EXTT5=
EXTT6=
EXTT7=
EXTT8=
EXTT9=
EXTT10=
PLAYORDER=
